<?xml version="1.0" ?><svg id="Layer_1" style="enable-background:new 0 0 32 32;" version="1.1" viewBox="0 0 32 32" xml:space="preserve" xmlns="http://www.w3.org/2000/svg" xmlns:xlink="http://www.w3.org/1999/xlink"><style type="text/css">
	.st0{clip-path:url(#SVGID_2_);}
	.st1{clip-path:url(#SVGID_4_);}
</style><g><g><path d="M21.8574219,25.5712891c-0.5522461,0-1-0.4472656-1-1V4c0-0.3056641,0.1396484-0.5947266,0.3793945-0.7841797    s0.5507813-0.2597656,0.8500977-0.1894531C22.8969727,3.2177734,30,5.0078125,30,9.0185547    c0,1.4550781-0.3984375,2.5537109-1.184082,3.2646484c-0.9521484,0.8623047-2.081543,0.7783203-2.2045898,0.7636719    c-0.5498047-0.0556641-0.9506836-0.5449219-0.8955078-1.0947266c0.0556641-0.5488281,0.5463867-0.9384766,1.0947266-0.8955078    c-0.0048828-0.0009766,0.3774414,0.015625,0.6806641-0.2724609C27.8242188,10.46875,28,9.8583984,28,9.0185547    c0-1.5878906-2.9492188-2.984375-5.1425781-3.6962891v19.2490234    C22.8574219,25.1240234,22.409668,25.5712891,21.8574219,25.5712891z"/></g><g><path d="M18.4287109,29C15.9868164,29,14,27.0136719,14,24.5712891s1.9868164-4.4287109,4.4287109-4.4287109    s4.4282227,1.9863281,4.4282227,4.4287109S20.8706055,29,18.4287109,29z M18.4287109,22.1425781    C17.0893555,22.1425781,16,23.2324219,16,24.5712891S17.0893555,27,18.4287109,27    c1.3388672,0,2.4282227-1.0898438,2.4282227-2.4287109S19.7675781,22.1425781,18.4287109,22.1425781z"/></g><g><path d="M16,14.1074219H3c-0.5522461,0-1-0.4472656-1-1s0.4477539-1,1-1h13c0.5522461,0,1,0.4472656,1,1    S16.5522461,14.1074219,16,14.1074219z"/></g><g><path d="M13.0078125,19.8925781H3c-0.5522461,0-1-0.4472656-1-1s0.4477539-1,1-1h10.0078125c0.5522461,0,1,0.4472656,1,1    S13.5600586,19.8925781,13.0078125,19.8925781z"/></g><g><path d="M10.953125,26H3c-0.5522461,0-1-0.4472656-1-1s0.4477539-1,1-1h7.953125c0.5522461,0,1,0.4472656,1,1    S11.5053711,26,10.953125,26z"/></g></g></svg>